<svg xmlns="http://www.w3.org/2000/svg" width="1200" height="260" viewBox="0 0 1200 260" role="img" aria-labelledby="title desc">
  <title id="title">ClearFlow logo</title>
  <desc id="desc">A roofline and flowing gutter mark beside a bold ClearFlow wordmark.</desc>
  <rect width="1200" height="260" fill="none"/>
  <g transform="translate(42 34)">
    <rect x="0" y="0" width="192" height="192" rx="46" fill="#17351f"/>
    <path d="M38 92 96 44l58 48" fill="none" stroke="#fff7e8" stroke-width="18" stroke-linecap="round" stroke-linejoin="round"/>
    <path d="M48 112h112" stroke="#f2b84b" stroke-width="18" stroke-linecap="round"/>
    <path d="M58 134c22 22 56 28 86 7 14-10 25-12 36-8" fill="none" stroke="#86c13f" stroke-width="14" stroke-linecap="round"/>
    <path d="M138 104c18-18 38-18 52-6-2 24-20 42-52 48 10-14 10-28 0-42z" fill="#86c13f"/>
    <circle cx="56" cy="152" r="9" fill="#fff7e8"/>
    <circle cx="82" cy="160" r="7" fill="#fff7e8"/>
  </g>
  <g transform="translate(278 62)">
    <text x="0" y="96" font-family="Inter, Arial, Helvetica, sans-serif" font-size="106" font-weight="900" letter-spacing="0" fill="#17351f">ClearFlow</text>
    <rect x="4" y="132" width="404" height="16" rx="8" fill="#86c13f"/>
    <rect x="398" y="132" width="268" height="16" rx="8" fill="#f2b84b"/>
  </g>
</svg>
