<svg xmlns="http://www.w3.org/2000/svg" viewBox="0 0 1100 260" role="img" aria-labelledby="title desc">
  <title id="title">Ember &amp; Masa Catering logo</title>
  <desc id="desc">A custom brand mark beside the Ember &amp; Masa Catering wordmark.</desc>
  <rect width="1100" height="260" fill="none"/>
  <g transform="translate(78 34)">
    <rect x="0" y="0" width="192" height="192" rx="44" fill="#211917"/>
    <path d="M130 212c-47-20-68-61-50-103 13-31 43-45 45-86 32 25 42 56 32 86 18-11 33-26 39-45 35 47 25 112-22 139-13 8-29 11-44 9z" fill="#f3b23d"/><path d="M132 194c-23-14-30-36-18-58 8-14 23-24 24-43 24 24 29 49 14 73 12-4 22-13 28-24 9 25-2 48-24 58-8 4-17 3-24-6z" fill="#4f8f72"/>
  </g>
  <text x="304" y="150" fill="#211917" font-family="Avenir Next, Avenir, Segoe UI, Arial, sans-serif" font-size="94" font-weight="900" letter-spacing="0">Ember &amp; Masa</text>
  <path d="M310 184h830" fill="none" stroke="#f3b23d" stroke-width="12" stroke-linecap="round"/>
</svg>