<svg xmlns="http://www.w3.org/2000/svg" viewBox="0 0 512 512" role="img" aria-labelledby="title desc">
  <title id="title">Ember &amp; Masa Catering favicon</title>
  <desc id="desc">A simplified brand mark for Ember &amp; Masa Catering.</desc>
  <rect x="56" y="56" width="400" height="400" rx="112" fill="#211917"/>
  <g transform="translate(122 116) scale(1.9)"><path d="M130 212c-47-20-68-61-50-103 13-31 43-45 45-86 32 25 42 56 32 86 18-11 33-26 39-45 35 47 25 112-22 139-13 8-29 11-44 9z" fill="#f3b23d"/><path d="M132 194c-23-14-30-36-18-58 8-14 23-24 24-43 24 24 29 49 14 73 12-4 22-13 28-24 9 25-2 48-24 58-8 4-17 3-24-6z" fill="#4f8f72"/></g>
</svg>