<svg xmlns="http://www.w3.org/2000/svg" viewBox="0 0 1100 260" role="img" aria-labelledby="title">
  <title id="title">SunWash Solar logo</title>
  <rect width="1100" height="260" fill="none"/>
  <g transform="translate(42 36)">
    <rect x="0" y="42" width="166" height="112" rx="18" fill="#0f2f4f"/>
    <path d="M19 62h128M19 91h128M19 120h128M54 52v92M94 52v92" stroke="#78d5e8" stroke-width="8" stroke-linecap="round"/>
    <path d="M137 22c0 25-20 45-45 45S47 47 47 22c0-8 2-15 6-22 8 13 22 21 39 21s31-8 39-21c4 7 6 14 6 22Z" fill="#f5c84b"/>
    <path d="M168 156c-20 19-47 31-77 31-34 0-64-15-84-38" fill="none" stroke="#3eb489" stroke-width="14" stroke-linecap="round"/>
  </g>
  <g transform="translate(250 76)">
    <text x="0" y="82" font-family="Avenir Next, Segoe UI, Arial, sans-serif" font-size="92" font-weight="850" letter-spacing="-1" fill="#10233f">SunWash</text>
    <path d="M5 112h398" stroke="#f5c84b" stroke-width="12" stroke-linecap="round"/>
    <path d="M426 112h124" stroke="#3eb489" stroke-width="12" stroke-linecap="round"/>
  </g>
</svg>
