<svg xmlns="http://www.w3.org/2000/svg" width="512" height="512" viewBox="0 0 512 512" role="img" aria-labelledby="title desc">
  <title id="title">BrightJet favicon</title>
  <desc id="desc">A navy badge with an aqua water droplet and yellow spray wand.</desc>
  <rect width="512" height="512" rx="104" fill="#f4fbfc"/>
  <circle cx="256" cy="256" r="206" fill="#052d3f"/>
  <path d="M168 300c0-76 88-146 88-146s88 70 88 146c0 51-39 90-88 90s-88-39-88-90z" fill="#4bd7e8"/>
  <path d="M205 300c0-44 51-88 51-88s51 44 51 88c0 29-22 51-51 51s-51-22-51-51z" fill="#ffffff" opacity=".92"/>
  <path d="M140 157l53-53 178 178-53 53z" fill="#f6c84c"/>
  <path d="M350 143l52-18M330 89l38-41M264 70l9-56" stroke="#f6c84c" stroke-width="24" stroke-linecap="round"/>
</svg>
