<svg xmlns="http://www.w3.org/2000/svg" width="1200" height="260" viewBox="0 0 1200 260" role="img" aria-labelledby="title desc">
  <title id="title">BloomRoute logo</title>
  <desc id="desc">A flower and winding garden path mark beside a bold BloomRoute wordmark.</desc>
  <rect width="1200" height="260" fill="none"/>
  <g transform="translate(44 34)">
    <rect x="0" y="0" width="192" height="192" rx="48" fill="#173b2d"/>
    <path d="M54 146c36-52 72-78 118-92" fill="none" stroke="#fff8ed" stroke-width="18" stroke-linecap="round"/>
    <path d="M56 148c38-8 70-6 104 12" fill="none" stroke="#87b94a" stroke-width="16" stroke-linecap="round"/>
    <circle cx="120" cy="76" r="20" fill="#f5b84b"/>
    <path d="M120 32c15 15 15 31 0 45-15-14-15-30 0-45zM164 76c-15 15-31 15-45 0 14-15 30-15 45 0zM120 120c-15-15-15-31 0-45 15 14 15 30 0 45zM76 76c15-15 31-15 45 0-14 15-30 15-45 0z" fill="#d95f91"/>
    <circle cx="82" cy="136" r="8" fill="#f5b84b"/>
    <circle cx="146" cy="148" r="8" fill="#d95f91"/>
  </g>
  <g transform="translate(278 62)">
    <text x="0" y="96" font-family="Inter, Arial, Helvetica, sans-serif" font-size="104" font-weight="900" letter-spacing="0" fill="#173b2d">BloomRoute</text>
    <rect x="4" y="132" width="366" height="16" rx="8" fill="#87b94a"/>
    <rect x="360" y="132" width="330" height="16" rx="8" fill="#f5b84b"/>
  </g>
</svg>
