<svg xmlns="http://www.w3.org/2000/svg" width="512" height="512" viewBox="0 0 512 512" role="img" aria-labelledby="title">
  <title id="title">BloomRoute favicon</title>
  <rect width="512" height="512" rx="128" fill="#173b2d"/>
  <path d="M132 378c92-132 184-198 300-234" fill="none" stroke="#fff8ed" stroke-width="44" stroke-linecap="round"/>
  <path d="M134 380c100-22 178-14 260 30" fill="none" stroke="#87b94a" stroke-width="38" stroke-linecap="round"/>
  <circle cx="302" cy="178" r="48" fill="#f5b84b"/>
  <path d="M302 78c36 36 36 72 0 104-36-32-36-68 0-104zM402 178c-36 36-72 36-104 0 32-36 68-36 104 0zM302 278c-36-36-36-72 0-104 36 32 36 68 0 104zM202 178c36-36 72-36 104 0-32 36-68 36-104 0z" fill="#d95f91"/>
  <circle cx="188" cy="352" r="20" fill="#f5b84b"/>
  <circle cx="352" cy="384" r="20" fill="#d95f91"/>
</svg>
