<svg xmlns="http://www.w3.org/2000/svg" viewBox="0 0 1200 260" role="img" aria-labelledby="title">
  <title id="title">Cartwright Coffee Co. logo</title>
  <g transform="translate(74 43)">
    <rect x="0" y="0" width="174" height="174" rx="44" fill="#2b2118"/>
    <path d="M50 112h70c22 0 40-18 40-40H50z" fill="#f7eee0"/>
    <path d="M123 72h20c16 0 28 13 28 28s-12 28-28 28h-20" fill="none" stroke="#e88d2a" stroke-width="15" stroke-linecap="round"/>
    <path d="M58 52c10-14 7-26-2-38M88 52c10-14 7-26-2-38M118 52c10-14 7-26-2-38" fill="none" stroke="#7bd0c2" stroke-width="9" stroke-linecap="round"/>
    <path d="M42 134h92" stroke="#e88d2a" stroke-width="13" stroke-linecap="round"/>
  </g>
  <text x="292" y="128" fill="#2b2118" font-family="Arial, Helvetica, sans-serif" font-size="80" font-weight="900" letter-spacing="0">Cartwright</text>
  <text x="295" y="184" fill="#7a4a24" font-family="Arial, Helvetica, sans-serif" font-size="46" font-weight="800" letter-spacing="0">Coffee Co.</text>
  <path d="M566 179h282" stroke="#e88d2a" stroke-width="9" stroke-linecap="round"/>
</svg>
